<mxfile host="Electron" modified="2024-05-26T00:59:51.003Z" agent="Mozilla/5.0 (Windows NT 10.0; Win64; x64) AppleWebKit/537.36 (KHTML, like Gecko) draw.io/24.4.8 Chrome/124.0.6367.207 Electron/30.0.6 Safari/537.36" etag="BnX7_0rLBeQFnuAhOAqF" version="24.4.8" type="device">
  <diagram name="Page-1" id="WP8amh1ac4-oa1NOGIcv">
    <mxGraphModel dx="1500" dy="887" grid="1" gridSize="10" guides="1" tooltips="1" connect="1" arrows="1" fold="1" page="1" pageScale="1" pageWidth="1100" pageHeight="850" math="0" shadow="0">
      <root>
        <mxCell id="0" />
        <mxCell id="1" parent="0" />
        <mxCell id="0PVyEQNVEW0dhHPFvjW6-4" value="" style="endArrow=none;html=1;rounded=0;dashed=1;endFill=0;" edge="1" parent="1">
          <mxGeometry width="50" height="50" relative="1" as="geometry">
            <mxPoint x="460" y="520" as="sourcePoint" />
            <mxPoint x="460" y="180" as="targetPoint" />
          </mxGeometry>
        </mxCell>
        <mxCell id="0PVyEQNVEW0dhHPFvjW6-7" value="" style="endArrow=none;html=1;rounded=0;dashed=1;endFill=0;" edge="1" parent="1">
          <mxGeometry width="50" height="50" relative="1" as="geometry">
            <mxPoint x="300" y="520" as="sourcePoint" />
            <mxPoint x="300" y="180" as="targetPoint" />
          </mxGeometry>
        </mxCell>
        <mxCell id="0PVyEQNVEW0dhHPFvjW6-8" value="" style="endArrow=none;html=1;rounded=0;dashed=1;dashPattern=12 12;endFill=0;" edge="1" parent="1">
          <mxGeometry width="50" height="50" relative="1" as="geometry">
            <mxPoint x="260" y="220" as="sourcePoint" />
            <mxPoint x="720" y="220" as="targetPoint" />
          </mxGeometry>
        </mxCell>
        <mxCell id="0PVyEQNVEW0dhHPFvjW6-9" value="" style="endArrow=none;html=1;rounded=0;dashed=1;dashPattern=12 12;endFill=0;" edge="1" parent="1">
          <mxGeometry width="50" height="50" relative="1" as="geometry">
            <mxPoint x="260" y="340" as="sourcePoint" />
            <mxPoint x="720" y="340" as="targetPoint" />
          </mxGeometry>
        </mxCell>
        <mxCell id="0PVyEQNVEW0dhHPFvjW6-44" value="" style="endArrow=none;html=1;rounded=0;endFill=0;" edge="1" parent="1">
          <mxGeometry width="50" height="50" relative="1" as="geometry">
            <mxPoint x="260" y="200" as="sourcePoint" />
            <mxPoint x="720" y="200" as="targetPoint" />
          </mxGeometry>
        </mxCell>
        <mxCell id="0PVyEQNVEW0dhHPFvjW6-48" value="" style="group" vertex="1" connectable="0" parent="1">
          <mxGeometry x="760" y="380" width="200" height="137" as="geometry" />
        </mxCell>
        <mxCell id="0PVyEQNVEW0dhHPFvjW6-27" value="Metal Layers" style="shape=table;startSize=30;container=1;collapsible=0;childLayout=tableLayout;strokeColor=default;fontSize=16;fillColor=default;swimlaneHead=1;" vertex="1" parent="0PVyEQNVEW0dhHPFvjW6-48">
          <mxGeometry width="200" height="137" as="geometry" />
        </mxCell>
        <mxCell id="0PVyEQNVEW0dhHPFvjW6-28" value="" style="shape=tableRow;horizontal=0;startSize=0;swimlaneHead=0;swimlaneBody=0;strokeColor=inherit;top=0;left=0;bottom=0;right=0;collapsible=0;dropTarget=0;fillColor=none;points=[[0,0.5],[1,0.5]];portConstraint=eastwest;fontSize=16;" vertex="1" parent="0PVyEQNVEW0dhHPFvjW6-27">
          <mxGeometry y="30" width="200" height="20" as="geometry" />
        </mxCell>
        <mxCell id="0PVyEQNVEW0dhHPFvjW6-29" value="Layer" style="shape=partialRectangle;html=1;whiteSpace=wrap;connectable=0;strokeColor=default;overflow=hidden;fillColor=none;top=0;left=0;bottom=0;right=0;pointerEvents=1;fontSize=12;" vertex="1" parent="0PVyEQNVEW0dhHPFvjW6-28">
          <mxGeometry width="67" height="20" as="geometry">
            <mxRectangle width="67" height="20" as="alternateBounds" />
          </mxGeometry>
        </mxCell>
        <mxCell id="0PVyEQNVEW0dhHPFvjW6-30" value="Orientation" style="shape=partialRectangle;html=1;whiteSpace=wrap;connectable=0;strokeColor=default;overflow=hidden;fillColor=none;top=0;left=0;bottom=0;right=0;pointerEvents=1;fontSize=12;" vertex="1" parent="0PVyEQNVEW0dhHPFvjW6-28">
          <mxGeometry x="67" width="66" height="20" as="geometry">
            <mxRectangle width="66" height="20" as="alternateBounds" />
          </mxGeometry>
        </mxCell>
        <mxCell id="0PVyEQNVEW0dhHPFvjW6-31" value="Legend" style="shape=partialRectangle;html=1;whiteSpace=wrap;connectable=0;strokeColor=default;overflow=hidden;fillColor=none;top=0;left=0;bottom=0;right=0;pointerEvents=1;fontSize=12;" vertex="1" parent="0PVyEQNVEW0dhHPFvjW6-28">
          <mxGeometry x="133" width="67" height="20" as="geometry">
            <mxRectangle width="67" height="20" as="alternateBounds" />
          </mxGeometry>
        </mxCell>
        <mxCell id="0PVyEQNVEW0dhHPFvjW6-40" style="shape=tableRow;horizontal=0;startSize=0;swimlaneHead=0;swimlaneBody=0;strokeColor=inherit;top=0;left=0;bottom=0;right=0;collapsible=0;dropTarget=0;fillColor=none;points=[[0,0.5],[1,0.5]];portConstraint=eastwest;fontSize=16;" vertex="1" parent="0PVyEQNVEW0dhHPFvjW6-27">
          <mxGeometry y="50" width="200" height="29" as="geometry" />
        </mxCell>
        <mxCell id="0PVyEQNVEW0dhHPFvjW6-41" value="M5" style="shape=partialRectangle;html=1;whiteSpace=wrap;connectable=0;strokeColor=inherit;overflow=hidden;fillColor=none;top=0;left=0;bottom=0;right=0;pointerEvents=1;fontSize=12;" vertex="1" parent="0PVyEQNVEW0dhHPFvjW6-40">
          <mxGeometry width="67" height="29" as="geometry">
            <mxRectangle width="67" height="29" as="alternateBounds" />
          </mxGeometry>
        </mxCell>
        <mxCell id="0PVyEQNVEW0dhHPFvjW6-42" value="Horizontal" style="shape=partialRectangle;html=1;whiteSpace=wrap;connectable=0;strokeColor=inherit;overflow=hidden;fillColor=none;top=0;left=0;bottom=0;right=0;pointerEvents=1;fontSize=12;" vertex="1" parent="0PVyEQNVEW0dhHPFvjW6-40">
          <mxGeometry x="67" width="66" height="29" as="geometry">
            <mxRectangle width="66" height="29" as="alternateBounds" />
          </mxGeometry>
        </mxCell>
        <mxCell id="0PVyEQNVEW0dhHPFvjW6-43" style="shape=partialRectangle;html=1;whiteSpace=wrap;connectable=0;strokeColor=inherit;overflow=hidden;fillColor=none;top=0;left=0;bottom=0;right=0;pointerEvents=1;fontSize=12;" vertex="1" parent="0PVyEQNVEW0dhHPFvjW6-40">
          <mxGeometry x="133" width="67" height="29" as="geometry">
            <mxRectangle width="67" height="29" as="alternateBounds" />
          </mxGeometry>
        </mxCell>
        <mxCell id="0PVyEQNVEW0dhHPFvjW6-32" value="" style="shape=tableRow;horizontal=0;startSize=0;swimlaneHead=0;swimlaneBody=0;strokeColor=inherit;top=0;left=0;bottom=0;right=0;collapsible=0;dropTarget=0;fillColor=none;points=[[0,0.5],[1,0.5]];portConstraint=eastwest;fontSize=16;" vertex="1" parent="0PVyEQNVEW0dhHPFvjW6-27">
          <mxGeometry y="79" width="200" height="29" as="geometry" />
        </mxCell>
        <mxCell id="0PVyEQNVEW0dhHPFvjW6-33" value="M4" style="shape=partialRectangle;html=1;whiteSpace=wrap;connectable=0;strokeColor=inherit;overflow=hidden;fillColor=none;top=0;left=0;bottom=0;right=0;pointerEvents=1;fontSize=12;" vertex="1" parent="0PVyEQNVEW0dhHPFvjW6-32">
          <mxGeometry width="67" height="29" as="geometry">
            <mxRectangle width="67" height="29" as="alternateBounds" />
          </mxGeometry>
        </mxCell>
        <mxCell id="0PVyEQNVEW0dhHPFvjW6-34" value="Vertical" style="shape=partialRectangle;html=1;whiteSpace=wrap;connectable=0;strokeColor=inherit;overflow=hidden;fillColor=none;top=0;left=0;bottom=0;right=0;pointerEvents=1;fontSize=12;" vertex="1" parent="0PVyEQNVEW0dhHPFvjW6-32">
          <mxGeometry x="67" width="66" height="29" as="geometry">
            <mxRectangle width="66" height="29" as="alternateBounds" />
          </mxGeometry>
        </mxCell>
        <mxCell id="0PVyEQNVEW0dhHPFvjW6-35" value="" style="shape=partialRectangle;html=1;whiteSpace=wrap;connectable=0;strokeColor=inherit;overflow=hidden;fillColor=none;top=0;left=0;bottom=0;right=0;pointerEvents=1;fontSize=12;" vertex="1" parent="0PVyEQNVEW0dhHPFvjW6-32">
          <mxGeometry x="133" width="67" height="29" as="geometry">
            <mxRectangle width="67" height="29" as="alternateBounds" />
          </mxGeometry>
        </mxCell>
        <mxCell id="0PVyEQNVEW0dhHPFvjW6-36" value="" style="shape=tableRow;horizontal=0;startSize=0;swimlaneHead=0;swimlaneBody=0;strokeColor=inherit;top=0;left=0;bottom=0;right=0;collapsible=0;dropTarget=0;fillColor=none;points=[[0,0.5],[1,0.5]];portConstraint=eastwest;fontSize=16;" vertex="1" parent="0PVyEQNVEW0dhHPFvjW6-27">
          <mxGeometry y="108" width="200" height="29" as="geometry" />
        </mxCell>
        <mxCell id="0PVyEQNVEW0dhHPFvjW6-37" value="M3" style="shape=partialRectangle;html=1;whiteSpace=wrap;connectable=0;strokeColor=inherit;overflow=hidden;fillColor=none;top=0;left=0;bottom=0;right=0;pointerEvents=1;fontSize=12;" vertex="1" parent="0PVyEQNVEW0dhHPFvjW6-36">
          <mxGeometry width="67" height="29" as="geometry">
            <mxRectangle width="67" height="29" as="alternateBounds" />
          </mxGeometry>
        </mxCell>
        <mxCell id="0PVyEQNVEW0dhHPFvjW6-38" value="Horizontal" style="shape=partialRectangle;html=1;whiteSpace=wrap;connectable=0;strokeColor=inherit;overflow=hidden;fillColor=none;top=0;left=0;bottom=0;right=0;pointerEvents=1;fontSize=12;" vertex="1" parent="0PVyEQNVEW0dhHPFvjW6-36">
          <mxGeometry x="67" width="66" height="29" as="geometry">
            <mxRectangle width="66" height="29" as="alternateBounds" />
          </mxGeometry>
        </mxCell>
        <mxCell id="0PVyEQNVEW0dhHPFvjW6-39" value="" style="shape=partialRectangle;html=1;whiteSpace=wrap;connectable=0;strokeColor=inherit;overflow=hidden;fillColor=none;top=0;left=0;bottom=0;right=0;pointerEvents=1;fontSize=12;" vertex="1" parent="0PVyEQNVEW0dhHPFvjW6-36">
          <mxGeometry x="133" width="67" height="29" as="geometry">
            <mxRectangle width="67" height="29" as="alternateBounds" />
          </mxGeometry>
        </mxCell>
        <mxCell id="0PVyEQNVEW0dhHPFvjW6-45" value="" style="endArrow=none;html=1;rounded=0;endFill=0;" edge="1" parent="0PVyEQNVEW0dhHPFvjW6-48">
          <mxGeometry width="50" height="50" relative="1" as="geometry">
            <mxPoint x="148" y="65.16" as="sourcePoint" />
            <mxPoint x="188" y="65.16" as="targetPoint" />
          </mxGeometry>
        </mxCell>
        <mxCell id="0PVyEQNVEW0dhHPFvjW6-46" value="" style="endArrow=none;html=1;rounded=0;dashed=1;endFill=0;" edge="1" parent="0PVyEQNVEW0dhHPFvjW6-48">
          <mxGeometry width="50" height="50" relative="1" as="geometry">
            <mxPoint x="148" y="94" as="sourcePoint" />
            <mxPoint x="188" y="94" as="targetPoint" />
          </mxGeometry>
        </mxCell>
        <mxCell id="0PVyEQNVEW0dhHPFvjW6-47" value="" style="endArrow=none;html=1;rounded=0;dashed=1;dashPattern=12 12;endFill=0;" edge="1" parent="0PVyEQNVEW0dhHPFvjW6-48">
          <mxGeometry width="50" height="50" relative="1" as="geometry">
            <mxPoint x="149" y="124" as="sourcePoint" />
            <mxPoint x="189" y="124" as="targetPoint" />
          </mxGeometry>
        </mxCell>
        <mxCell id="0PVyEQNVEW0dhHPFvjW6-74" value="" style="endArrow=none;html=1;rounded=0;endFill=0;" edge="1" parent="1">
          <mxGeometry width="50" height="50" relative="1" as="geometry">
            <mxPoint x="260" y="360" as="sourcePoint" />
            <mxPoint x="720" y="360" as="targetPoint" />
          </mxGeometry>
        </mxCell>
        <mxCell id="0PVyEQNVEW0dhHPFvjW6-75" value="" style="endArrow=none;html=1;rounded=0;dashed=1;dashPattern=12 12;endFill=0;" edge="1" parent="1">
          <mxGeometry width="50" height="50" relative="1" as="geometry">
            <mxPoint x="260" y="380" as="sourcePoint" />
            <mxPoint x="720" y="380" as="targetPoint" />
          </mxGeometry>
        </mxCell>
        <mxCell id="0PVyEQNVEW0dhHPFvjW6-76" value="" style="endArrow=none;html=1;rounded=0;dashed=1;endFill=0;" edge="1" parent="1">
          <mxGeometry width="50" height="50" relative="1" as="geometry">
            <mxPoint x="480" y="520" as="sourcePoint" />
            <mxPoint x="480" y="180" as="targetPoint" />
          </mxGeometry>
        </mxCell>
        <mxCell id="0PVyEQNVEW0dhHPFvjW6-77" value="" style="endArrow=none;html=1;rounded=0;dashed=1;endFill=0;" edge="1" parent="1">
          <mxGeometry width="50" height="50" relative="1" as="geometry">
            <mxPoint x="680" y="520" as="sourcePoint" />
            <mxPoint x="680" y="180" as="targetPoint" />
          </mxGeometry>
        </mxCell>
        <mxCell id="0PVyEQNVEW0dhHPFvjW6-78" value="" style="endArrow=none;html=1;rounded=0;dashed=1;dashPattern=12 12;endFill=0;" edge="1" parent="1">
          <mxGeometry width="50" height="50" relative="1" as="geometry">
            <mxPoint x="260" y="500" as="sourcePoint" />
            <mxPoint x="720" y="500" as="targetPoint" />
          </mxGeometry>
        </mxCell>
        <mxCell id="0PVyEQNVEW0dhHPFvjW6-83" value="" style="endArrow=none;html=1;rounded=0;dashed=1;endFill=0;" edge="1" parent="1">
          <mxGeometry width="50" height="50" relative="1" as="geometry">
            <mxPoint x="280" y="520" as="sourcePoint" />
            <mxPoint x="280" y="180" as="targetPoint" />
          </mxGeometry>
        </mxCell>
        <mxCell id="0PVyEQNVEW0dhHPFvjW6-80" style="edgeStyle=orthogonalEdgeStyle;rounded=0;orthogonalLoop=1;jettySize=auto;html=1;exitX=0.33;exitY=0;exitDx=0;exitDy=0;exitPerimeter=0;startArrow=classic;startFill=1;endArrow=oval;endFill=1;" edge="1" parent="1" source="0PVyEQNVEW0dhHPFvjW6-1">
          <mxGeometry relative="1" as="geometry">
            <mxPoint x="359.5967741935484" y="200" as="targetPoint" />
          </mxGeometry>
        </mxCell>
        <mxCell id="0PVyEQNVEW0dhHPFvjW6-81" style="edgeStyle=orthogonalEdgeStyle;rounded=0;orthogonalLoop=1;jettySize=auto;html=1;exitX=0.66;exitY=0;exitDx=0;exitDy=0;exitPerimeter=0;endArrow=oval;endFill=1;startArrow=classic;startFill=1;dashed=1;dashPattern=12 12;" edge="1" parent="1" source="0PVyEQNVEW0dhHPFvjW6-1">
          <mxGeometry relative="1" as="geometry">
            <mxPoint x="399.2307692307693" y="220" as="targetPoint" />
          </mxGeometry>
        </mxCell>
        <mxCell id="0PVyEQNVEW0dhHPFvjW6-84" style="edgeStyle=orthogonalEdgeStyle;rounded=0;orthogonalLoop=1;jettySize=auto;html=1;exitX=0;exitY=0.33;exitDx=0;exitDy=0;exitPerimeter=0;startArrow=classic;startFill=1;endArrow=oval;endFill=1;dashed=1;" edge="1" parent="1" source="0PVyEQNVEW0dhHPFvjW6-1">
          <mxGeometry relative="1" as="geometry">
            <mxPoint x="300" y="266.36293436293437" as="targetPoint" />
          </mxGeometry>
        </mxCell>
        <mxCell id="0PVyEQNVEW0dhHPFvjW6-85" style="edgeStyle=orthogonalEdgeStyle;rounded=0;orthogonalLoop=1;jettySize=auto;html=1;exitX=0;exitY=0.66;exitDx=0;exitDy=0;exitPerimeter=0;startArrow=classic;startFill=1;endArrow=oval;endFill=1;dashed=1;" edge="1" parent="1" source="0PVyEQNVEW0dhHPFvjW6-1">
          <mxGeometry relative="1" as="geometry">
            <mxPoint x="280" y="292.7722007722008" as="targetPoint" />
          </mxGeometry>
        </mxCell>
        <mxCell id="0PVyEQNVEW0dhHPFvjW6-87" style="edgeStyle=orthogonalEdgeStyle;rounded=0;orthogonalLoop=1;jettySize=auto;html=1;exitX=0.5;exitY=1;exitDx=0;exitDy=0;exitPerimeter=0;dashed=1;dashPattern=12 12;endArrow=oval;endFill=1;startArrow=classic;startFill=1;" edge="1" parent="1" source="0PVyEQNVEW0dhHPFvjW6-1">
          <mxGeometry relative="1" as="geometry">
            <mxPoint x="380" y="340" as="targetPoint" />
          </mxGeometry>
        </mxCell>
        <mxCell id="0PVyEQNVEW0dhHPFvjW6-89" value="" style="group" vertex="1" connectable="0" parent="1">
          <mxGeometry x="320" y="240" width="120" height="80" as="geometry" />
        </mxCell>
        <mxCell id="0PVyEQNVEW0dhHPFvjW6-119" style="edgeStyle=orthogonalEdgeStyle;rounded=0;orthogonalLoop=1;jettySize=auto;html=1;exitX=1;exitY=0.33;exitDx=0;exitDy=0;exitPerimeter=0;startArrow=classic;startFill=1;endArrow=oval;endFill=1;dashed=1;" edge="1" parent="0PVyEQNVEW0dhHPFvjW6-89" source="0PVyEQNVEW0dhHPFvjW6-1">
          <mxGeometry relative="1" as="geometry">
            <mxPoint x="140" y="26.41964285714289" as="targetPoint" />
          </mxGeometry>
        </mxCell>
        <mxCell id="0PVyEQNVEW0dhHPFvjW6-120" style="edgeStyle=orthogonalEdgeStyle;rounded=0;orthogonalLoop=1;jettySize=auto;html=1;exitX=1;exitY=0.66;exitDx=0;exitDy=0;exitPerimeter=0;startArrow=none;startFill=0;endArrow=classicThin;endFill=1;dashed=1;" edge="1" parent="0PVyEQNVEW0dhHPFvjW6-89" source="0PVyEQNVEW0dhHPFvjW6-1">
          <mxGeometry relative="1" as="geometry">
            <mxPoint x="160" y="52.79088471849866" as="targetPoint" />
          </mxGeometry>
        </mxCell>
        <mxCell id="0PVyEQNVEW0dhHPFvjW6-1" value="" style="rounded=0;whiteSpace=wrap;html=1;points=[[0,0.33,0,0,0],[0,0.66,0,0,0],[0.33,0,0,0,0],[0.5,1,0,0,0],[0.66,0,0,0,0],[1,0.33,0,0,0],[1,0.66,0,0,0]];" vertex="1" parent="0PVyEQNVEW0dhHPFvjW6-89">
          <mxGeometry width="120" height="80" as="geometry" />
        </mxCell>
        <mxCell id="0PVyEQNVEW0dhHPFvjW6-2" value="vinj" style="text;html=1;align=right;verticalAlign=middle;whiteSpace=wrap;rounded=0;rotation=0;connectable=0;" vertex="1" parent="0PVyEQNVEW0dhHPFvjW6-89">
          <mxGeometry x="90" y="16" width="30" height="20" as="geometry" />
        </mxCell>
        <mxCell id="0PVyEQNVEW0dhHPFvjW6-3" value="vinj_en_b" style="text;html=1;align=right;verticalAlign=middle;whiteSpace=wrap;rounded=0;rotation=-90;connectable=0;" vertex="1" parent="0PVyEQNVEW0dhHPFvjW6-89">
          <mxGeometry x="49" y="20" width="60" height="20" as="geometry" />
        </mxCell>
        <mxCell id="0PVyEQNVEW0dhHPFvjW6-5" value="vsrc" style="text;html=1;align=left;verticalAlign=middle;whiteSpace=wrap;rounded=0;rotation=0;connectable=0;" vertex="1" parent="0PVyEQNVEW0dhHPFvjW6-89">
          <mxGeometry y="16" width="30" height="20" as="geometry" />
        </mxCell>
        <mxCell id="0PVyEQNVEW0dhHPFvjW6-6" value="vctrl" style="text;html=1;align=left;verticalAlign=middle;whiteSpace=wrap;rounded=0;rotation=-90;connectable=0;" vertex="1" parent="0PVyEQNVEW0dhHPFvjW6-89">
          <mxGeometry x="44" y="54" width="30" height="20" as="geometry" />
        </mxCell>
        <mxCell id="0PVyEQNVEW0dhHPFvjW6-10" value="vtun" style="text;html=1;align=right;verticalAlign=middle;whiteSpace=wrap;rounded=0;rotation=-90;connectable=0;" vertex="1" parent="0PVyEQNVEW0dhHPFvjW6-89">
          <mxGeometry x="23" y="5" width="30" height="20" as="geometry" />
        </mxCell>
        <mxCell id="0PVyEQNVEW0dhHPFvjW6-12" value="VGND" style="text;html=1;align=left;verticalAlign=middle;whiteSpace=wrap;rounded=0;rotation=0;connectable=0;" vertex="1" parent="0PVyEQNVEW0dhHPFvjW6-89">
          <mxGeometry y="42" width="40" height="20" as="geometry" />
        </mxCell>
        <mxCell id="0PVyEQNVEW0dhHPFvjW6-88" value="vfg" style="text;html=1;align=right;verticalAlign=middle;whiteSpace=wrap;rounded=0;rotation=0;connectable=0;" vertex="1" parent="0PVyEQNVEW0dhHPFvjW6-89">
          <mxGeometry x="90" y="42" width="30" height="20" as="geometry" />
        </mxCell>
        <mxCell id="0PVyEQNVEW0dhHPFvjW6-90" value="" style="group" vertex="1" connectable="0" parent="1">
          <mxGeometry x="540" y="240" width="120" height="80" as="geometry" />
        </mxCell>
        <mxCell id="0PVyEQNVEW0dhHPFvjW6-126" style="edgeStyle=orthogonalEdgeStyle;rounded=0;orthogonalLoop=1;jettySize=auto;html=1;exitX=0;exitY=0.66;exitDx=0;exitDy=0;exitPerimeter=0;dashed=1;startArrow=classic;startFill=1;endArrow=oval;endFill=1;" edge="1" parent="0PVyEQNVEW0dhHPFvjW6-90" source="0PVyEQNVEW0dhHPFvjW6-91">
          <mxGeometry relative="1" as="geometry">
            <mxPoint x="-40" y="52.81481481481478" as="targetPoint" />
          </mxGeometry>
        </mxCell>
        <mxCell id="0PVyEQNVEW0dhHPFvjW6-127" style="edgeStyle=orthogonalEdgeStyle;rounded=0;orthogonalLoop=1;jettySize=auto;html=1;exitX=0;exitY=0.33;exitDx=0;exitDy=0;exitPerimeter=0;dashed=1;startArrow=classic;startFill=1;endArrow=oval;endFill=1;" edge="1" parent="0PVyEQNVEW0dhHPFvjW6-90" source="0PVyEQNVEW0dhHPFvjW6-91">
          <mxGeometry relative="1" as="geometry">
            <mxPoint x="-20" y="26.43086816720256" as="targetPoint" />
          </mxGeometry>
        </mxCell>
        <mxCell id="0PVyEQNVEW0dhHPFvjW6-129" style="edgeStyle=orthogonalEdgeStyle;rounded=0;orthogonalLoop=1;jettySize=auto;html=1;exitX=0.33;exitY=0;exitDx=0;exitDy=0;exitPerimeter=0;startArrow=classic;startFill=1;endArrow=oval;endFill=1;" edge="1" parent="0PVyEQNVEW0dhHPFvjW6-90" source="0PVyEQNVEW0dhHPFvjW6-91">
          <mxGeometry relative="1" as="geometry">
            <mxPoint x="39.57407407407402" y="-40" as="targetPoint" />
          </mxGeometry>
        </mxCell>
        <mxCell id="0PVyEQNVEW0dhHPFvjW6-130" style="edgeStyle=orthogonalEdgeStyle;rounded=0;orthogonalLoop=1;jettySize=auto;html=1;exitX=0.66;exitY=0;exitDx=0;exitDy=0;exitPerimeter=0;dashed=1;dashPattern=12 12;startArrow=classic;startFill=1;endArrow=oval;endFill=1;" edge="1" parent="0PVyEQNVEW0dhHPFvjW6-90" source="0PVyEQNVEW0dhHPFvjW6-91">
          <mxGeometry relative="1" as="geometry">
            <mxPoint x="79.2037037037037" y="-20" as="targetPoint" />
          </mxGeometry>
        </mxCell>
        <mxCell id="0PVyEQNVEW0dhHPFvjW6-131" style="edgeStyle=orthogonalEdgeStyle;rounded=0;orthogonalLoop=1;jettySize=auto;html=1;exitX=1;exitY=0.33;exitDx=0;exitDy=0;exitPerimeter=0;dashed=1;startArrow=classic;startFill=1;endArrow=oval;endFill=1;" edge="1" parent="0PVyEQNVEW0dhHPFvjW6-90" source="0PVyEQNVEW0dhHPFvjW6-91">
          <mxGeometry relative="1" as="geometry">
            <mxPoint x="140" y="26.43086816720256" as="targetPoint" />
          </mxGeometry>
        </mxCell>
        <mxCell id="0PVyEQNVEW0dhHPFvjW6-132" style="edgeStyle=orthogonalEdgeStyle;rounded=0;orthogonalLoop=1;jettySize=auto;html=1;exitX=1;exitY=0.66;exitDx=0;exitDy=0;exitPerimeter=0;dashed=1;" edge="1" parent="0PVyEQNVEW0dhHPFvjW6-90" source="0PVyEQNVEW0dhHPFvjW6-91">
          <mxGeometry relative="1" as="geometry">
            <mxPoint x="160" y="52.79742765273312" as="targetPoint" />
          </mxGeometry>
        </mxCell>
        <mxCell id="0PVyEQNVEW0dhHPFvjW6-133" style="edgeStyle=orthogonalEdgeStyle;rounded=0;orthogonalLoop=1;jettySize=auto;html=1;exitX=0.5;exitY=1;exitDx=0;exitDy=0;exitPerimeter=0;dashed=1;dashPattern=12 12;startArrow=classic;startFill=1;endArrow=oval;endFill=1;" edge="1" parent="0PVyEQNVEW0dhHPFvjW6-90" source="0PVyEQNVEW0dhHPFvjW6-91">
          <mxGeometry relative="1" as="geometry">
            <mxPoint x="60" y="100" as="targetPoint" />
          </mxGeometry>
        </mxCell>
        <mxCell id="0PVyEQNVEW0dhHPFvjW6-91" value="" style="rounded=0;whiteSpace=wrap;html=1;points=[[0,0.33,0,0,0],[0,0.66,0,0,0],[0.33,0,0,0,0],[0.5,1,0,0,0],[0.66,0,0,0,0],[1,0.33,0,0,0],[1,0.66,0,0,0]];" vertex="1" parent="0PVyEQNVEW0dhHPFvjW6-90">
          <mxGeometry width="120" height="80" as="geometry" />
        </mxCell>
        <mxCell id="0PVyEQNVEW0dhHPFvjW6-92" value="vinj" style="text;html=1;align=right;verticalAlign=middle;whiteSpace=wrap;rounded=0;rotation=0;connectable=0;" vertex="1" parent="0PVyEQNVEW0dhHPFvjW6-90">
          <mxGeometry x="90" y="16" width="30" height="20" as="geometry" />
        </mxCell>
        <mxCell id="0PVyEQNVEW0dhHPFvjW6-93" value="vinj_en_b" style="text;html=1;align=right;verticalAlign=middle;whiteSpace=wrap;rounded=0;rotation=-90;connectable=0;" vertex="1" parent="0PVyEQNVEW0dhHPFvjW6-90">
          <mxGeometry x="49" y="20" width="60" height="20" as="geometry" />
        </mxCell>
        <mxCell id="0PVyEQNVEW0dhHPFvjW6-94" value="vsrc" style="text;html=1;align=left;verticalAlign=middle;whiteSpace=wrap;rounded=0;rotation=0;connectable=0;" vertex="1" parent="0PVyEQNVEW0dhHPFvjW6-90">
          <mxGeometry y="16" width="30" height="20" as="geometry" />
        </mxCell>
        <mxCell id="0PVyEQNVEW0dhHPFvjW6-95" value="vctrl" style="text;html=1;align=left;verticalAlign=middle;whiteSpace=wrap;rounded=0;rotation=-90;connectable=0;" vertex="1" parent="0PVyEQNVEW0dhHPFvjW6-90">
          <mxGeometry x="44" y="54" width="30" height="20" as="geometry" />
        </mxCell>
        <mxCell id="0PVyEQNVEW0dhHPFvjW6-96" value="vtun" style="text;html=1;align=right;verticalAlign=middle;whiteSpace=wrap;rounded=0;rotation=-90;connectable=0;" vertex="1" parent="0PVyEQNVEW0dhHPFvjW6-90">
          <mxGeometry x="23" y="5" width="30" height="20" as="geometry" />
        </mxCell>
        <mxCell id="0PVyEQNVEW0dhHPFvjW6-97" value="VGND" style="text;html=1;align=left;verticalAlign=middle;whiteSpace=wrap;rounded=0;rotation=0;connectable=0;" vertex="1" parent="0PVyEQNVEW0dhHPFvjW6-90">
          <mxGeometry y="42" width="40" height="20" as="geometry" />
        </mxCell>
        <mxCell id="0PVyEQNVEW0dhHPFvjW6-98" value="vfg" style="text;html=1;align=right;verticalAlign=middle;whiteSpace=wrap;rounded=0;rotation=0;connectable=0;" vertex="1" parent="0PVyEQNVEW0dhHPFvjW6-90">
          <mxGeometry x="90" y="42" width="30" height="20" as="geometry" />
        </mxCell>
        <mxCell id="0PVyEQNVEW0dhHPFvjW6-99" value="" style="group" vertex="1" connectable="0" parent="1">
          <mxGeometry x="320" y="400" width="120" height="80" as="geometry" />
        </mxCell>
        <mxCell id="0PVyEQNVEW0dhHPFvjW6-141" style="edgeStyle=orthogonalEdgeStyle;rounded=0;orthogonalLoop=1;jettySize=auto;html=1;exitX=0.33;exitY=0;exitDx=0;exitDy=0;exitPerimeter=0;startArrow=classic;startFill=1;endArrow=oval;endFill=1;" edge="1" parent="0PVyEQNVEW0dhHPFvjW6-99" source="0PVyEQNVEW0dhHPFvjW6-100">
          <mxGeometry relative="1" as="geometry">
            <mxPoint x="39.57407407407402" y="-40" as="targetPoint" />
          </mxGeometry>
        </mxCell>
        <mxCell id="0PVyEQNVEW0dhHPFvjW6-142" style="edgeStyle=orthogonalEdgeStyle;rounded=0;orthogonalLoop=1;jettySize=auto;html=1;exitX=0.66;exitY=0;exitDx=0;exitDy=0;exitPerimeter=0;startArrow=classic;startFill=1;endArrow=oval;endFill=1;dashed=1;dashPattern=12 12;" edge="1" parent="0PVyEQNVEW0dhHPFvjW6-99" source="0PVyEQNVEW0dhHPFvjW6-100">
          <mxGeometry relative="1" as="geometry">
            <mxPoint x="79.2037037037037" y="-20" as="targetPoint" />
          </mxGeometry>
        </mxCell>
        <mxCell id="0PVyEQNVEW0dhHPFvjW6-143" style="edgeStyle=orthogonalEdgeStyle;rounded=0;orthogonalLoop=1;jettySize=auto;html=1;exitX=0;exitY=0.33;exitDx=0;exitDy=0;exitPerimeter=0;startArrow=classic;startFill=1;endArrow=oval;endFill=1;dashed=1;" edge="1" parent="0PVyEQNVEW0dhHPFvjW6-99" source="0PVyEQNVEW0dhHPFvjW6-100">
          <mxGeometry relative="1" as="geometry">
            <mxPoint x="-20" y="26.425925925925867" as="targetPoint" />
          </mxGeometry>
        </mxCell>
        <mxCell id="0PVyEQNVEW0dhHPFvjW6-144" style="edgeStyle=orthogonalEdgeStyle;rounded=0;orthogonalLoop=1;jettySize=auto;html=1;exitX=0;exitY=0.66;exitDx=0;exitDy=0;exitPerimeter=0;startArrow=classic;startFill=1;endArrow=oval;endFill=1;dashed=1;" edge="1" parent="0PVyEQNVEW0dhHPFvjW6-99" source="0PVyEQNVEW0dhHPFvjW6-100">
          <mxGeometry relative="1" as="geometry">
            <mxPoint x="-40" y="52.81481481481478" as="targetPoint" />
          </mxGeometry>
        </mxCell>
        <mxCell id="0PVyEQNVEW0dhHPFvjW6-145" style="edgeStyle=orthogonalEdgeStyle;rounded=0;orthogonalLoop=1;jettySize=auto;html=1;exitX=1;exitY=0.33;exitDx=0;exitDy=0;exitPerimeter=0;startArrow=classic;startFill=1;endArrow=oval;endFill=1;dashed=1;" edge="1" parent="0PVyEQNVEW0dhHPFvjW6-99" source="0PVyEQNVEW0dhHPFvjW6-100">
          <mxGeometry relative="1" as="geometry">
            <mxPoint x="140" y="26.425925925925867" as="targetPoint" />
          </mxGeometry>
        </mxCell>
        <mxCell id="0PVyEQNVEW0dhHPFvjW6-146" style="edgeStyle=orthogonalEdgeStyle;rounded=0;orthogonalLoop=1;jettySize=auto;html=1;exitX=1;exitY=0.66;exitDx=0;exitDy=0;exitPerimeter=0;dashed=1;" edge="1" parent="0PVyEQNVEW0dhHPFvjW6-99" source="0PVyEQNVEW0dhHPFvjW6-100">
          <mxGeometry relative="1" as="geometry">
            <mxPoint x="160" y="52.81481481481478" as="targetPoint" />
          </mxGeometry>
        </mxCell>
        <mxCell id="0PVyEQNVEW0dhHPFvjW6-147" style="edgeStyle=orthogonalEdgeStyle;rounded=0;orthogonalLoop=1;jettySize=auto;html=1;exitX=0.5;exitY=1;exitDx=0;exitDy=0;exitPerimeter=0;startArrow=classic;startFill=1;endArrow=oval;endFill=1;dashed=1;dashPattern=12 12;" edge="1" parent="0PVyEQNVEW0dhHPFvjW6-99" source="0PVyEQNVEW0dhHPFvjW6-100">
          <mxGeometry relative="1" as="geometry">
            <mxPoint x="60.046511627906966" y="100" as="targetPoint" />
          </mxGeometry>
        </mxCell>
        <mxCell id="0PVyEQNVEW0dhHPFvjW6-100" value="" style="rounded=0;whiteSpace=wrap;html=1;points=[[0,0.33,0,0,0],[0,0.66,0,0,0],[0.33,0,0,0,0],[0.5,1,0,0,0],[0.66,0,0,0,0],[1,0.33,0,0,0],[1,0.66,0,0,0]];" vertex="1" parent="0PVyEQNVEW0dhHPFvjW6-99">
          <mxGeometry width="120" height="80" as="geometry" />
        </mxCell>
        <mxCell id="0PVyEQNVEW0dhHPFvjW6-101" value="vinj" style="text;html=1;align=right;verticalAlign=middle;whiteSpace=wrap;rounded=0;rotation=0;connectable=0;" vertex="1" parent="0PVyEQNVEW0dhHPFvjW6-99">
          <mxGeometry x="90" y="16" width="30" height="20" as="geometry" />
        </mxCell>
        <mxCell id="0PVyEQNVEW0dhHPFvjW6-102" value="vinj_en_b" style="text;html=1;align=right;verticalAlign=middle;whiteSpace=wrap;rounded=0;rotation=-90;connectable=0;" vertex="1" parent="0PVyEQNVEW0dhHPFvjW6-99">
          <mxGeometry x="49" y="20" width="60" height="20" as="geometry" />
        </mxCell>
        <mxCell id="0PVyEQNVEW0dhHPFvjW6-103" value="vsrc" style="text;html=1;align=left;verticalAlign=middle;whiteSpace=wrap;rounded=0;rotation=0;connectable=0;" vertex="1" parent="0PVyEQNVEW0dhHPFvjW6-99">
          <mxGeometry y="16" width="30" height="20" as="geometry" />
        </mxCell>
        <mxCell id="0PVyEQNVEW0dhHPFvjW6-104" value="vctrl" style="text;html=1;align=left;verticalAlign=middle;whiteSpace=wrap;rounded=0;rotation=-90;connectable=0;" vertex="1" parent="0PVyEQNVEW0dhHPFvjW6-99">
          <mxGeometry x="44" y="54" width="30" height="20" as="geometry" />
        </mxCell>
        <mxCell id="0PVyEQNVEW0dhHPFvjW6-105" value="vtun" style="text;html=1;align=right;verticalAlign=middle;whiteSpace=wrap;rounded=0;rotation=-90;connectable=0;" vertex="1" parent="0PVyEQNVEW0dhHPFvjW6-99">
          <mxGeometry x="23" y="5" width="30" height="20" as="geometry" />
        </mxCell>
        <mxCell id="0PVyEQNVEW0dhHPFvjW6-106" value="VGND" style="text;html=1;align=left;verticalAlign=middle;whiteSpace=wrap;rounded=0;rotation=0;connectable=0;" vertex="1" parent="0PVyEQNVEW0dhHPFvjW6-99">
          <mxGeometry y="42" width="40" height="20" as="geometry" />
        </mxCell>
        <mxCell id="0PVyEQNVEW0dhHPFvjW6-107" value="vfg" style="text;html=1;align=right;verticalAlign=middle;whiteSpace=wrap;rounded=0;rotation=0;connectable=0;" vertex="1" parent="0PVyEQNVEW0dhHPFvjW6-99">
          <mxGeometry x="90" y="42" width="30" height="20" as="geometry" />
        </mxCell>
        <mxCell id="0PVyEQNVEW0dhHPFvjW6-108" value="" style="group" vertex="1" connectable="0" parent="1">
          <mxGeometry x="540" y="400" width="120" height="80" as="geometry" />
        </mxCell>
        <mxCell id="0PVyEQNVEW0dhHPFvjW6-134" style="edgeStyle=orthogonalEdgeStyle;rounded=0;orthogonalLoop=1;jettySize=auto;html=1;exitX=0.33;exitY=0;exitDx=0;exitDy=0;exitPerimeter=0;startArrow=classic;startFill=1;endArrow=oval;endFill=1;" edge="1" parent="0PVyEQNVEW0dhHPFvjW6-108" source="0PVyEQNVEW0dhHPFvjW6-109">
          <mxGeometry relative="1" as="geometry">
            <mxPoint x="39.57407407407402" y="-40" as="targetPoint" />
          </mxGeometry>
        </mxCell>
        <mxCell id="0PVyEQNVEW0dhHPFvjW6-135" style="edgeStyle=orthogonalEdgeStyle;rounded=0;orthogonalLoop=1;jettySize=auto;html=1;exitX=0.66;exitY=0;exitDx=0;exitDy=0;exitPerimeter=0;dashed=1;dashPattern=12 12;startArrow=classic;startFill=1;endArrow=oval;endFill=1;" edge="1" parent="0PVyEQNVEW0dhHPFvjW6-108" source="0PVyEQNVEW0dhHPFvjW6-109">
          <mxGeometry relative="1" as="geometry">
            <mxPoint x="79.2037037037037" y="-20" as="targetPoint" />
          </mxGeometry>
        </mxCell>
        <mxCell id="0PVyEQNVEW0dhHPFvjW6-136" style="edgeStyle=orthogonalEdgeStyle;rounded=0;orthogonalLoop=1;jettySize=auto;html=1;exitX=1;exitY=0.33;exitDx=0;exitDy=0;exitPerimeter=0;dashed=1;startArrow=classic;startFill=1;endArrow=oval;endFill=1;" edge="1" parent="0PVyEQNVEW0dhHPFvjW6-108" source="0PVyEQNVEW0dhHPFvjW6-109">
          <mxGeometry relative="1" as="geometry">
            <mxPoint x="140" y="26.425925925925867" as="targetPoint" />
          </mxGeometry>
        </mxCell>
        <mxCell id="0PVyEQNVEW0dhHPFvjW6-137" style="edgeStyle=orthogonalEdgeStyle;rounded=0;orthogonalLoop=1;jettySize=auto;html=1;exitX=1;exitY=0.66;exitDx=0;exitDy=0;exitPerimeter=0;dashed=1;" edge="1" parent="0PVyEQNVEW0dhHPFvjW6-108" source="0PVyEQNVEW0dhHPFvjW6-109">
          <mxGeometry relative="1" as="geometry">
            <mxPoint x="160" y="52.81481481481478" as="targetPoint" />
          </mxGeometry>
        </mxCell>
        <mxCell id="0PVyEQNVEW0dhHPFvjW6-138" style="edgeStyle=orthogonalEdgeStyle;rounded=0;orthogonalLoop=1;jettySize=auto;html=1;exitX=0;exitY=0.33;exitDx=0;exitDy=0;exitPerimeter=0;dashed=1;startArrow=classic;startFill=1;endArrow=oval;endFill=1;" edge="1" parent="0PVyEQNVEW0dhHPFvjW6-108" source="0PVyEQNVEW0dhHPFvjW6-109">
          <mxGeometry relative="1" as="geometry">
            <mxPoint x="-20" y="26.372093023255786" as="targetPoint" />
          </mxGeometry>
        </mxCell>
        <mxCell id="0PVyEQNVEW0dhHPFvjW6-139" style="edgeStyle=orthogonalEdgeStyle;rounded=0;orthogonalLoop=1;jettySize=auto;html=1;exitX=0;exitY=0.66;exitDx=0;exitDy=0;exitPerimeter=0;dashed=1;startArrow=classic;startFill=1;endArrow=oval;endFill=1;" edge="1" parent="0PVyEQNVEW0dhHPFvjW6-108" source="0PVyEQNVEW0dhHPFvjW6-109">
          <mxGeometry relative="1" as="geometry">
            <mxPoint x="-40" y="52.790697674418595" as="targetPoint" />
          </mxGeometry>
        </mxCell>
        <mxCell id="0PVyEQNVEW0dhHPFvjW6-140" style="edgeStyle=orthogonalEdgeStyle;rounded=0;orthogonalLoop=1;jettySize=auto;html=1;exitX=0.5;exitY=1;exitDx=0;exitDy=0;exitPerimeter=0;dashed=1;dashPattern=12 12;startArrow=classic;startFill=1;endArrow=oval;endFill=1;" edge="1" parent="0PVyEQNVEW0dhHPFvjW6-108" source="0PVyEQNVEW0dhHPFvjW6-109">
          <mxGeometry relative="1" as="geometry">
            <mxPoint x="59.93959731543623" y="100" as="targetPoint" />
          </mxGeometry>
        </mxCell>
        <mxCell id="0PVyEQNVEW0dhHPFvjW6-109" value="" style="rounded=0;whiteSpace=wrap;html=1;points=[[0,0.33,0,0,0],[0,0.66,0,0,0],[0.33,0,0,0,0],[0.5,1,0,0,0],[0.66,0,0,0,0],[1,0.33,0,0,0],[1,0.66,0,0,0]];" vertex="1" parent="0PVyEQNVEW0dhHPFvjW6-108">
          <mxGeometry width="120" height="80" as="geometry" />
        </mxCell>
        <mxCell id="0PVyEQNVEW0dhHPFvjW6-110" value="vinj" style="text;html=1;align=right;verticalAlign=middle;whiteSpace=wrap;rounded=0;rotation=0;connectable=0;" vertex="1" parent="0PVyEQNVEW0dhHPFvjW6-108">
          <mxGeometry x="90" y="16" width="30" height="20" as="geometry" />
        </mxCell>
        <mxCell id="0PVyEQNVEW0dhHPFvjW6-111" value="vinj_en_b" style="text;html=1;align=right;verticalAlign=middle;whiteSpace=wrap;rounded=0;rotation=-90;connectable=0;" vertex="1" parent="0PVyEQNVEW0dhHPFvjW6-108">
          <mxGeometry x="49" y="20" width="60" height="20" as="geometry" />
        </mxCell>
        <mxCell id="0PVyEQNVEW0dhHPFvjW6-112" value="vsrc" style="text;html=1;align=left;verticalAlign=middle;whiteSpace=wrap;rounded=0;rotation=0;connectable=0;" vertex="1" parent="0PVyEQNVEW0dhHPFvjW6-108">
          <mxGeometry y="16" width="30" height="20" as="geometry" />
        </mxCell>
        <mxCell id="0PVyEQNVEW0dhHPFvjW6-113" value="vctrl" style="text;html=1;align=left;verticalAlign=middle;whiteSpace=wrap;rounded=0;rotation=-90;connectable=0;" vertex="1" parent="0PVyEQNVEW0dhHPFvjW6-108">
          <mxGeometry x="44" y="54" width="30" height="20" as="geometry" />
        </mxCell>
        <mxCell id="0PVyEQNVEW0dhHPFvjW6-114" value="vtun" style="text;html=1;align=right;verticalAlign=middle;whiteSpace=wrap;rounded=0;rotation=-90;connectable=0;" vertex="1" parent="0PVyEQNVEW0dhHPFvjW6-108">
          <mxGeometry x="23" y="5" width="30" height="20" as="geometry" />
        </mxCell>
        <mxCell id="0PVyEQNVEW0dhHPFvjW6-115" value="VGND" style="text;html=1;align=left;verticalAlign=middle;whiteSpace=wrap;rounded=0;rotation=0;connectable=0;" vertex="1" parent="0PVyEQNVEW0dhHPFvjW6-108">
          <mxGeometry y="42" width="40" height="20" as="geometry" />
        </mxCell>
        <mxCell id="0PVyEQNVEW0dhHPFvjW6-116" value="vfg" style="text;html=1;align=right;verticalAlign=middle;whiteSpace=wrap;rounded=0;rotation=0;connectable=0;" vertex="1" parent="0PVyEQNVEW0dhHPFvjW6-108">
          <mxGeometry x="90" y="42" width="30" height="20" as="geometry" />
        </mxCell>
        <mxCell id="0PVyEQNVEW0dhHPFvjW6-117" value="" style="endArrow=none;html=1;rounded=0;dashed=1;endFill=0;" edge="1" parent="1">
          <mxGeometry width="50" height="50" relative="1" as="geometry">
            <mxPoint x="500" y="520" as="sourcePoint" />
            <mxPoint x="500" y="180" as="targetPoint" />
          </mxGeometry>
        </mxCell>
        <mxCell id="0PVyEQNVEW0dhHPFvjW6-118" value="" style="endArrow=none;html=1;rounded=0;dashed=1;endFill=0;" edge="1" parent="1">
          <mxGeometry width="50" height="50" relative="1" as="geometry">
            <mxPoint x="700" y="520" as="sourcePoint" />
            <mxPoint x="700" y="180" as="targetPoint" />
          </mxGeometry>
        </mxCell>
        <mxCell id="0PVyEQNVEW0dhHPFvjW6-125" value="" style="endArrow=none;html=1;rounded=0;dashed=1;endFill=0;" edge="1" parent="1">
          <mxGeometry width="50" height="50" relative="1" as="geometry">
            <mxPoint x="520" y="520" as="sourcePoint" />
            <mxPoint x="520" y="180" as="targetPoint" />
          </mxGeometry>
        </mxCell>
        <mxCell id="0PVyEQNVEW0dhHPFvjW6-150" value="Text" style="text;html=1;align=center;verticalAlign=middle;whiteSpace=wrap;rounded=0;" vertex="1" parent="1">
          <mxGeometry x="500" y="330" width="60" height="30" as="geometry" />
        </mxCell>
        <mxCell id="0PVyEQNVEW0dhHPFvjW6-153" value="VGND" style="text;html=1;align=left;verticalAlign=middle;whiteSpace=wrap;rounded=0;rotation=270;" vertex="1" parent="1">
          <mxGeometry x="255" y="145" width="50" height="20" as="geometry" />
        </mxCell>
        <mxCell id="0PVyEQNVEW0dhHPFvjW6-154" value="vsrc0" style="text;html=1;align=left;verticalAlign=middle;whiteSpace=wrap;rounded=0;rotation=270;" vertex="1" parent="1">
          <mxGeometry x="275" y="145" width="50" height="20" as="geometry" />
        </mxCell>
        <mxCell id="0PVyEQNVEW0dhHPFvjW6-155" value="vinj" style="text;html=1;align=left;verticalAlign=middle;whiteSpace=wrap;rounded=0;rotation=270;" vertex="1" parent="1">
          <mxGeometry x="435" y="145" width="50" height="20" as="geometry" />
        </mxCell>
        <mxCell id="0PVyEQNVEW0dhHPFvjW6-156" value="vfg0" style="text;html=1;align=left;verticalAlign=middle;whiteSpace=wrap;rounded=0;rotation=270;" vertex="1" parent="1">
          <mxGeometry x="455" y="145" width="50" height="20" as="geometry" />
        </mxCell>
        <mxCell id="0PVyEQNVEW0dhHPFvjW6-157" value="VGND" style="text;html=1;align=left;verticalAlign=middle;whiteSpace=wrap;rounded=0;rotation=270;" vertex="1" parent="1">
          <mxGeometry x="475" y="145" width="50" height="20" as="geometry" />
        </mxCell>
        <mxCell id="0PVyEQNVEW0dhHPFvjW6-158" value="vsrc1" style="text;html=1;align=left;verticalAlign=middle;whiteSpace=wrap;rounded=0;rotation=270;" vertex="1" parent="1">
          <mxGeometry x="495" y="145" width="50" height="20" as="geometry" />
        </mxCell>
        <mxCell id="0PVyEQNVEW0dhHPFvjW6-159" value="vinj" style="text;html=1;align=left;verticalAlign=middle;whiteSpace=wrap;rounded=0;rotation=270;" vertex="1" parent="1">
          <mxGeometry x="655" y="145" width="50" height="20" as="geometry" />
        </mxCell>
        <mxCell id="0PVyEQNVEW0dhHPFvjW6-160" value="vfg1" style="text;html=1;align=left;verticalAlign=middle;whiteSpace=wrap;rounded=0;rotation=270;" vertex="1" parent="1">
          <mxGeometry x="675" y="145" width="50" height="20" as="geometry" />
        </mxCell>
        <mxCell id="0PVyEQNVEW0dhHPFvjW6-161" value="vtun" style="text;html=1;align=right;verticalAlign=middle;whiteSpace=wrap;rounded=0;" vertex="1" parent="1">
          <mxGeometry x="190" y="190" width="70" height="20" as="geometry" />
        </mxCell>
        <mxCell id="0PVyEQNVEW0dhHPFvjW6-162" value="vinj_en_b0" style="text;html=1;align=right;verticalAlign=middle;whiteSpace=wrap;rounded=0;" vertex="1" parent="1">
          <mxGeometry x="190" y="210" width="70" height="20" as="geometry" />
        </mxCell>
        <mxCell id="0PVyEQNVEW0dhHPFvjW6-163" value="vctrl0" style="text;html=1;align=right;verticalAlign=middle;whiteSpace=wrap;rounded=0;" vertex="1" parent="1">
          <mxGeometry x="190" y="330" width="70" height="20" as="geometry" />
        </mxCell>
        <mxCell id="0PVyEQNVEW0dhHPFvjW6-164" value="vtun" style="text;html=1;align=right;verticalAlign=middle;whiteSpace=wrap;rounded=0;" vertex="1" parent="1">
          <mxGeometry x="190" y="350" width="70" height="20" as="geometry" />
        </mxCell>
        <mxCell id="0PVyEQNVEW0dhHPFvjW6-165" value="vinj_en_b1" style="text;html=1;align=right;verticalAlign=middle;whiteSpace=wrap;rounded=0;" vertex="1" parent="1">
          <mxGeometry x="190" y="370" width="70" height="20" as="geometry" />
        </mxCell>
        <mxCell id="0PVyEQNVEW0dhHPFvjW6-166" value="vctrl1" style="text;html=1;align=right;verticalAlign=middle;whiteSpace=wrap;rounded=0;" vertex="1" parent="1">
          <mxGeometry x="190" y="490" width="70" height="20" as="geometry" />
        </mxCell>
        <mxCell id="0PVyEQNVEW0dhHPFvjW6-167" value="Column 0" style="text;html=1;align=center;verticalAlign=middle;whiteSpace=wrap;rounded=0;fontSize=20;" vertex="1" parent="1">
          <mxGeometry x="320" y="90" width="120" height="30" as="geometry" />
        </mxCell>
        <mxCell id="0PVyEQNVEW0dhHPFvjW6-168" value="Column 1" style="text;html=1;align=center;verticalAlign=middle;whiteSpace=wrap;rounded=0;fontSize=20;" vertex="1" parent="1">
          <mxGeometry x="540" y="90" width="120" height="30" as="geometry" />
        </mxCell>
        <mxCell id="0PVyEQNVEW0dhHPFvjW6-169" value="Row 0" style="text;html=1;align=center;verticalAlign=middle;whiteSpace=wrap;rounded=0;fontSize=20;" vertex="1" parent="1">
          <mxGeometry x="120" y="265" width="80" height="30" as="geometry" />
        </mxCell>
        <mxCell id="0PVyEQNVEW0dhHPFvjW6-170" value="Row 1" style="text;html=1;align=center;verticalAlign=middle;whiteSpace=wrap;rounded=0;fontSize=20;" vertex="1" parent="1">
          <mxGeometry x="120" y="425" width="80" height="30" as="geometry" />
        </mxCell>
        <mxCell id="0PVyEQNVEW0dhHPFvjW6-171" value="Floating Gate Cap Cell Array Layout" style="text;html=1;align=center;verticalAlign=middle;whiteSpace=wrap;rounded=0;fontSize=32;fontStyle=1" vertex="1" parent="1">
          <mxGeometry x="120" y="30" width="840" height="50" as="geometry" />
        </mxCell>
      </root>
    </mxGraphModel>
  </diagram>
</mxfile>
